# xmcd
#
# Track frame offsets:
#	150
#	12258
#	21108
#	31940
#	43431
#	61126
#
# Disc length: 975 seconds
#
# Revision: 0
# Processed by: cddbd v1.5.2PL0 Copyright (c) Steve Scherf et al.
# Submitted via: audiograbber 1.83.01
#
DISCID=4503cd06
DTITLE=Bloosbrödrarna - Demo till SR Malmö 25/10 2007
DYEAR=2007
DGENRE=
TTITLE0=Jag vaknade inte i morse
TTITLE1=Hjärtbryt
TTITLE2=Varför oroa sig, när man kan få panik
TTITLE3=Hondadrägg
TTITLE4=E du redig!?
TTITLE5=Klia mig
EXTD=
EXTT0=
EXTT1=
EXTT2=
EXTT3=
EXTT4=
EXTT5=
PLAYORDER=
